<svg xmlns="http://www.w3.org/2000/svg" viewBox="0 0 250 300" width="250" height="300">
  <defs>
    <linearGradient id="bg_archer" x1="0%" y1="0%" x2="100%" y2="100%">
      <stop offset="0%" style="stop-color:#52a170"/>
      <stop offset="100%" style="stop-color:#166534"/>
    </linearGradient>
    <linearGradient id="skin_archer" x1="0%" y1="0%" x2="100%" y2="100%">
      <stop offset="0%" style="stop-color:#ffce7e"/>
      <stop offset="100%" style="stop-color:#FDBF6F"/>
    </linearGradient>
    <filter id="shadow_archer">
      <feDropShadow dx="2" dy="3" stdDeviation="2" flood-opacity="0.3"/>
    </filter>
    <clipPath id="card_archer">
      <rect x="0" y="0" width="250" height="300" rx="15"/>
    </clipPath>
  </defs>

  <!-- Background -->
  <rect x="0" y="0" width="250" height="300" rx="15" fill="url(#bg_archer)"/>

  <!-- Decorative pattern -->
  <g opacity="0.08" clip-path="url(#card_archer)">
    <circle cx="35" cy="45" r="30" fill="white"/><circle cx="215" cy="75" r="25" fill="white"/><circle cx="40" cy="220" r="35" fill="white"/>
  </g>

  <!-- Character body -->
  <g transform="translate(125, 165)" filter="url(#shadow_archer)">
    <ellipse cx="0" cy="55" rx="45" ry="55" fill="#166534"/>
              <ellipse cx="0" cy="58" rx="40" ry="48" fill="#004c1b"/>
              <path d="M-25 0 Q0 10 25 0 L30 40 Q0 50 -30 40 Z" fill="#78350F"/>
              <rect x="-5" y="5" width="10" height="35" fill="#15803D"/>
              <ellipse cx="-45" cy="35" rx="12" ry="20" fill="#166534"/>
              <ellipse cx="45" cy="35" rx="12" ry="20" fill="#166534"/>
              <circle cx="-48" cy="58" r="10" fill="#FDBF6F"/>
              <circle cx="48" cy="58" r="10" fill="#FDBF6F"/>
  </g>

  <!-- Character head -->
  <g transform="translate(125, 100)">
    <ellipse cx="0" cy="0" rx="42" ry="50" fill="url(#skin_archer)"/><ellipse cx="-40" cy="0" rx="7" ry="11" fill="#FDBF6F"/>
             <ellipse cx="40" cy="0" rx="7" ry="11" fill="#FDBF6F"/>
    <ellipse cx="0" cy="-32" rx="42" ry="25" fill="#92400E"/>
              <ellipse cx="0" cy="-50" rx="8" ry="6" fill="#792700"/>
              <path d="M0 -45 Q15 -30 10 30" stroke="#92400E" stroke-width="14" fill="none"/>
              <path d="M0 -45 Q15 -30 10 30" stroke="#792700" stroke-width="4" fill="none"/>
    <ellipse cx="-14" cy="-8" rx="9" ry="8" fill="white"/>
             <ellipse cx="14" cy="-8" rx="9" ry="8" fill="white"/><circle cx="-14" cy="-8" r="4" fill="#1C1917"/>
             <circle cx="14" cy="-8" r="4" fill="#1C1917"/>
             <circle cx="-13" cy="-9" r="1.5" fill="white"/>
             <circle cx="15" cy="-9" r="1.5" fill="white"/><path d="M-23 -10 Q-14 -19 -5 -10" fill="none" stroke="#1C1917" stroke-width="2"/>
               <path d="M5 -10 Q14 -19 23 -10" fill="none" stroke="#1C1917" stroke-width="2"/><ellipse cx="0" cy="8" rx="5" ry="7" fill="#f1b363"/><path d="M-10 22 Q0 28 10 22" fill="none" stroke="#78350F" stroke-width="2"/><ellipse cx="-22" cy="12" rx="8" ry="5" fill="#F87171" opacity="0.3"/>
             <ellipse cx="22" cy="12" rx="8" ry="5" fill="#F87171" opacity="0.3"/><circle cx="-18" cy="5" r="1.5" fill="#92400E" opacity="0.4"/>
             <circle cx="-12" cy="8" r="1" fill="#92400E" opacity="0.4"/>
             <circle cx="-22" cy="10" r="1.5" fill="#92400E" opacity="0.4"/>
             <circle cx="18" cy="5" r="1.5" fill="#92400E" opacity="0.4"/>
             <circle cx="12" cy="8" r="1" fill="#92400E" opacity="0.4"/>
             <circle cx="22" cy="10" r="1.5" fill="#92400E" opacity="0.4"/>
    <g transform="translate(0, 25)">
        <ellipse cx="0" cy="30" rx="55" ry="25" fill="#166534" opacity="0.8"/>
      </g>
  </g>

  <!-- Type banner -->
  <rect x="0" y="0" width="250" height="32" fill="#6B7280" opacity="0.95"/>
  <text x="125" y="22" text-anchor="middle" font-family="Georgia, serif" font-size="13"
        fill="white" font-weight="bold" letter-spacing="1">CASTLE</text>

  <!-- Name banner -->
  <rect x="0" y="260" width="250" height="40" fill="#6B7280"/>
  <rect x="15" y="262" width="220" height="1.5" fill="#9CA3AF" opacity="0.4"/>
  <text x="125" y="285" text-anchor="middle" font-family="Georgia, serif" font-size="14"
        fill="white" font-weight="bold">ARCHER</text>
</svg>