<svg xmlns="http://www.w3.org/2000/svg" viewBox="0 0 250 300" width="250" height="300">
  <defs>
    <linearGradient id="bg_general" x1="0%" y1="0%" x2="100%" y2="100%">
      <stop offset="0%" style="stop-color:#9CA3AF"/>
      <stop offset="100%" style="stop-color:#4B5563"/>
    </linearGradient>
    <linearGradient id="skin_general" x1="0%" y1="0%" x2="100%" y2="100%">
      <stop offset="0%" style="stop-color:#e3b483"/>
      <stop offset="100%" style="stop-color:#D4A574"/>
    </linearGradient>
    <filter id="shadow_general">
      <feDropShadow dx="2" dy="3" stdDeviation="2" flood-opacity="0.3"/>
    </filter>
    <clipPath id="card_general">
      <rect x="0" y="0" width="250" height="300" rx="15"/>
    </clipPath>
  </defs>

  <!-- Background -->
  <rect x="0" y="0" width="250" height="300" rx="15" fill="url(#bg_general)"/>

  <!-- Decorative pattern -->
  <g opacity="0.08" clip-path="url(#card_general)">
    <circle cx="35" cy="45" r="30" fill="white"/><circle cx="215" cy="75" r="25" fill="white"/><circle cx="40" cy="220" r="35" fill="white"/>
  </g>

  <!-- Character body -->
  <g transform="translate(125, 165)" filter="url(#shadow_general)">
    <ellipse cx="0" cy="52" rx="50" ry="55" fill="#6B7280"/>
              <ellipse cx="0" cy="57" rx="44" ry="48" fill="#525967"/>
              <rect x="-28" y="5" width="56" height="40" fill="#991B1B" rx="3"/>
              <path d="M-20 5 L0 -5 L20 5" fill="#991B1B" stroke="#FDE047" stroke-width="2"/>
              <ellipse cx="-48" cy="38" rx="15" ry="22" fill="#6B7280"/>
              <ellipse cx="48" cy="38" rx="15" ry="22" fill="#6B7280"/>
              <circle cx="-52" cy="62" r="10" fill="#D4A574"/>
              <circle cx="52" cy="62" r="10" fill="#D4A574"/>
  </g>

  <!-- Character head -->
  <g transform="translate(125, 100)">
    <ellipse cx="0" cy="0" rx="45" ry="50" fill="url(#skin_general)"/><ellipse cx="-40" cy="0" rx="7" ry="11" fill="#D4A574"/>
             <ellipse cx="40" cy="0" rx="7" ry="11" fill="#D4A574"/><path d="M-35 20 Q-30 40 0 45 Q30 40 35 20" fill="#cfa06f" opacity="0.3"/>
    <ellipse cx="0" cy="-35" rx="40" ry="22" fill="#6B7280"/>
              <ellipse cx="-15" cy="-38" rx="15" ry="10" fill="#525967"/>
    <ellipse cx="-14" cy="-8" rx="8" ry="7" fill="white"/>
             <ellipse cx="14" cy="-8" rx="8" ry="7" fill="white"/><circle cx="-14" cy="-8" r="4" fill="#1C1917"/>
             <circle cx="14" cy="-8" r="4" fill="#1C1917"/>
             <circle cx="-13" cy="-9" r="1.5" fill="white"/>
             <circle cx="15" cy="-9" r="1.5" fill="white"/><line x1="-22" y1="-18" x2="-6" y2="-14" stroke="#78350F" stroke-width="3"/>
               <line x1="22" y1="-18" x2="6" y2="-14" stroke="#78350F" stroke-width="3"/><ellipse cx="0" cy="8" rx="7" ry="9" fill="#c89968"/><path d="M-10 22 Q0 28 10 22" fill="none" stroke="#78350F" stroke-width="2"/><path d="M-28 -15 Q-22 -12 -18 -15" fill="none" stroke="#c09160" stroke-width="1" opacity="0.5"/>
             <path d="M28 -15 Q22 -12 18 -15" fill="none" stroke="#c09160" stroke-width="1" opacity="0.5"/>
             <path d="M-25 5 Q-22 8 -20 5" fill="none" stroke="#c09160" stroke-width="1" opacity="0.4"/>
             <path d="M25 5 Q22 8 20 5" fill="none" stroke="#c09160" stroke-width="1" opacity="0.4"/><path d="M-25 -5 L-18 10" stroke="#D4A574" stroke-width="2" opacity="0.6"/>
    <g transform="translate(0, -15)">
        <ellipse cx="0" cy="-30" rx="48" ry="42" fill="#9CA3AF"/>
        <rect x="-22" y="-25" width="44" height="25" fill="#1C1917"/>
        <line x1="-20" y1="-12" x2="20" y2="-12" stroke="#9CA3AF" stroke-width="2"/>
        <path d="M0 -72 L0 -55" stroke="#6B7280" stroke-width="4"/>
        <ellipse cx="0" cy="-72" rx="10" ry="6" fill="#EF4444"/>
      </g>
  </g>

  <!-- Type banner -->
  <rect x="0" y="0" width="250" height="32" fill="#6B7280" opacity="0.95"/>
  <text x="125" y="22" text-anchor="middle" font-family="Georgia, serif" font-size="13"
        fill="white" font-weight="bold" letter-spacing="1">CASTLE</text>

  <!-- Name banner -->
  <rect x="0" y="260" width="250" height="40" fill="#6B7280"/>
  <rect x="15" y="262" width="220" height="1.5" fill="#9CA3AF" opacity="0.4"/>
  <text x="125" y="285" text-anchor="middle" font-family="Georgia, serif" font-size="14"
        fill="white" font-weight="bold">GENERAL</text>
</svg>