<svg xmlns="http://www.w3.org/2000/svg" viewBox="0 0 250 300" width="250" height="300">
  <defs>
    <linearGradient id="bg_maid" x1="0%" y1="0%" x2="100%" y2="100%">
      <stop offset="0%" style="stop-color:#585553"/>
      <stop offset="100%" style="stop-color:#1C1917"/>
    </linearGradient>
    <linearGradient id="skin_maid" x1="0%" y1="0%" x2="100%" y2="100%">
      <stop offset="0%" style="stop-color:#fff6d6"/>
      <stop offset="100%" style="stop-color:#FDE7C7"/>
    </linearGradient>
    <filter id="shadow_maid">
      <feDropShadow dx="2" dy="3" stdDeviation="2" flood-opacity="0.3"/>
    </filter>
    <clipPath id="card_maid">
      <rect x="0" y="0" width="250" height="300" rx="15"/>
    </clipPath>
  </defs>

  <!-- Background -->
  <rect x="0" y="0" width="250" height="300" rx="15" fill="url(#bg_maid)"/>

  <!-- Decorative pattern -->
  <g opacity="0.08" clip-path="url(#card_maid)">
    <circle cx="35" cy="45" r="30" fill="white"/><circle cx="215" cy="75" r="25" fill="white"/><circle cx="40" cy="220" r="35" fill="white"/>
  </g>

  <!-- Character body -->
  <g transform="translate(125, 165)" filter="url(#shadow_maid)">
    <ellipse cx="0" cy="55" rx="48" ry="55" fill="#1C1917"/>
              <ellipse cx="0" cy="58" rx="42" ry="48" fill="#030000"/>
              <path d="M-22 -5 Q0 5 22 -5 L28 30 Q0 40 -28 30 Z" fill="#FFFFFF"/>
              <ellipse cx="-48" cy="38" rx="14" ry="22" fill="#1C1917"/>
              <ellipse cx="48" cy="38" rx="14" ry="22" fill="#1C1917"/>
              <circle cx="-52" cy="62" r="10" fill="#FDE7C7"/>
              <circle cx="52" cy="62" r="10" fill="#FDE7C7"/>
  </g>

  <!-- Character head -->
  <g transform="translate(125, 100)">
    <ellipse cx="0" cy="0" rx="42" ry="50" fill="url(#skin_maid)"/><ellipse cx="-40" cy="0" rx="7" ry="11" fill="#FDE7C7"/>
             <ellipse cx="40" cy="0" rx="7" ry="11" fill="#FDE7C7"/>
    <ellipse cx="0" cy="-35" rx="42" ry="24" fill="#78350F"/>
              <circle cx="0" cy="-52" r="14" fill="#78350F"/>
              <circle cx="0" cy="-52" r="10" fill="#5f1c00"/>
    <ellipse cx="-14" cy="-8" rx="9" ry="8" fill="white"/>
             <ellipse cx="14" cy="-8" rx="9" ry="8" fill="white"/><circle cx="-14" cy="-8" r="4" fill="#1C1917"/>
             <circle cx="14" cy="-8" r="4" fill="#1C1917"/>
             <circle cx="-13" cy="-9" r="1.5" fill="white"/>
             <circle cx="15" cy="-9" r="1.5" fill="white"/><path d="M-23 -10 Q-14 -19 -5 -10" fill="none" stroke="#1C1917" stroke-width="2"/>
               <path d="M5 -10 Q14 -19 23 -10" fill="none" stroke="#1C1917" stroke-width="2"/><ellipse cx="0" cy="8" rx="5" ry="7" fill="#f1dbbb"/><path d="M-14 22 Q0 36 14 22" fill="#991B1B"/>
             <path d="M-10 30 Q0 34 10 30" fill="#EC4899"/><ellipse cx="-22" cy="12" rx="8" ry="5" fill="#F87171" opacity="0.3"/>
             <ellipse cx="22" cy="12" rx="8" ry="5" fill="#F87171" opacity="0.3"/>
    <g transform="translate(0, -50)">
        <ellipse cx="0" cy="5" rx="35" ry="12" fill="white" stroke="#E5E7EB" stroke-width="1"/>
        <path d="M-25 0 Q0 -15 25 0" fill="white" stroke="#E5E7EB" stroke-width="1"/>
        <path d="M-20 8 Q-30 15 -25 25" fill="white"/>
        <path d="M20 8 Q30 15 25 25" fill="white"/>
      </g>
  </g>

  <!-- Type banner -->
  <rect x="0" y="0" width="250" height="32" fill="#6B7280" opacity="0.95"/>
  <text x="125" y="22" text-anchor="middle" font-family="Georgia, serif" font-size="13"
        fill="white" font-weight="bold" letter-spacing="1">CASTLE</text>

  <!-- Name banner -->
  <rect x="0" y="260" width="250" height="40" fill="#6B7280"/>
  <rect x="15" y="262" width="220" height="1.5" fill="#9CA3AF" opacity="0.4"/>
  <text x="125" y="285" text-anchor="middle" font-family="Georgia, serif" font-size="14"
        fill="white" font-weight="bold">MAID</text>
</svg>