<svg xmlns="http://www.w3.org/2000/svg" viewBox="0 0 250 300" width="250" height="300">
  <defs>
    <linearGradient id="bg_prince" x1="0%" y1="0%" x2="100%" y2="100%">
      <stop offset="0%" style="stop-color:#60A5FA"/>
      <stop offset="100%" style="stop-color:#1E40AF"/>
    </linearGradient>
    <linearGradient id="skin_prince" x1="0%" y1="0%" x2="100%" y2="100%">
      <stop offset="0%" style="stop-color:#ffce7e"/>
      <stop offset="100%" style="stop-color:#FDBF6F"/>
    </linearGradient>
    <filter id="shadow_prince">
      <feDropShadow dx="2" dy="3" stdDeviation="2" flood-opacity="0.3"/>
    </filter>
    <clipPath id="card_prince">
      <rect x="0" y="0" width="250" height="300" rx="15"/>
    </clipPath>
  </defs>

  <!-- Background -->
  <rect x="0" y="0" width="250" height="300" rx="15" fill="url(#bg_prince)"/>

  <!-- Decorative pattern -->
  <g opacity="0.08" clip-path="url(#card_prince)">
    <circle cx="35" cy="45" r="30" fill="white"/><circle cx="215" cy="75" r="25" fill="white"/><circle cx="40" cy="220" r="35" fill="white"/>
  </g>

  <!-- Character body -->
  <g transform="translate(125, 165)" filter="url(#shadow_prince)">
    <ellipse cx="0" cy="55" rx="48" ry="55" fill="#2563EB"/>
              <ellipse cx="0" cy="58" rx="42" ry="48" fill="#0c4ad2"/>
              <path d="M-22 -5 Q0 5 22 -5 L28 30 Q0 40 -28 30 Z" fill="#FDE047"/>
              <ellipse cx="-48" cy="38" rx="14" ry="22" fill="#2563EB"/>
              <ellipse cx="48" cy="38" rx="14" ry="22" fill="#2563EB"/>
              <circle cx="-52" cy="62" r="10" fill="#FDBF6F"/>
              <circle cx="52" cy="62" r="10" fill="#FDBF6F"/>
  </g>

  <!-- Character head -->
  <g transform="translate(125, 100)">
    <ellipse cx="0" cy="0" rx="45" ry="50" fill="url(#skin_prince)"/><ellipse cx="-40" cy="0" rx="7" ry="11" fill="#FDBF6F"/>
             <ellipse cx="40" cy="0" rx="7" ry="11" fill="#FDBF6F"/>
    <ellipse cx="0" cy="-35" rx="40" ry="22" fill="#4A3728"/>
              <ellipse cx="-15" cy="-38" rx="15" ry="10" fill="#311e0f"/>
    <ellipse cx="-14" cy="-8" rx="8" ry="7" fill="white"/>
             <ellipse cx="14" cy="-8" rx="8" ry="7" fill="white"/><circle cx="-14" cy="-8" r="4" fill="#1C1917"/>
             <circle cx="14" cy="-8" r="4" fill="#1C1917"/>
             <circle cx="-13" cy="-9" r="1.5" fill="white"/>
             <circle cx="15" cy="-9" r="1.5" fill="white"/><ellipse cx="0" cy="8" rx="7" ry="9" fill="#f1b363"/><path d="M-10 22 Q0 28 10 22" fill="none" stroke="#78350F" stroke-width="2"/>
    <g transform="translate(0, -52)">
        <path d="M-20 8 L-20 0 L-10 5 L0 -5 L10 5 L20 0 L20 8 Z" fill="#FDE047" stroke="#B45309" stroke-width="2"/>
        <circle cx="0" cy="-2" r="3" fill="#3B82F6"/>
      </g>
  </g>

  <!-- Type banner -->
  <rect x="0" y="0" width="250" height="32" fill="#6B7280" opacity="0.95"/>
  <text x="125" y="22" text-anchor="middle" font-family="Georgia, serif" font-size="13"
        fill="white" font-weight="bold" letter-spacing="1">CASTLE</text>

  <!-- Name banner -->
  <rect x="0" y="260" width="250" height="40" fill="#6B7280"/>
  <rect x="15" y="262" width="220" height="1.5" fill="#9CA3AF" opacity="0.4"/>
  <text x="125" y="285" text-anchor="middle" font-family="Georgia, serif" font-size="14"
        fill="white" font-weight="bold">PRINCE</text>
</svg>