<svg xmlns="http://www.w3.org/2000/svg" viewBox="0 0 250 300" width="250" height="300">
  <defs>
    <linearGradient id="bg_banker" x1="0%" y1="0%" x2="100%" y2="100%">
      <stop offset="0%" style="stop-color:#585553"/>
      <stop offset="100%" style="stop-color:#1C1917"/>
    </linearGradient>
    <linearGradient id="skin_banker" x1="0%" y1="0%" x2="100%" y2="100%">
      <stop offset="0%" style="stop-color:#ffce7e"/>
      <stop offset="100%" style="stop-color:#FDBF6F"/>
    </linearGradient>
    <filter id="shadow_banker">
      <feDropShadow dx="2" dy="3" stdDeviation="2" flood-opacity="0.3"/>
    </filter>
    <clipPath id="card_banker">
      <rect x="0" y="0" width="250" height="300" rx="15"/>
    </clipPath>
  </defs>

  <!-- Background -->
  <rect x="0" y="0" width="250" height="300" rx="15" fill="url(#bg_banker)"/>

  <!-- Decorative pattern -->
  <g opacity="0.08" clip-path="url(#card_banker)">
    <circle cx="35" cy="45" r="30" fill="white"/><circle cx="215" cy="75" r="25" fill="white"/><circle cx="40" cy="220" r="35" fill="white"/>
  </g>

  <!-- Character body -->
  <g transform="translate(125, 165)" filter="url(#shadow_banker)">
    <ellipse cx="0" cy="55" rx="48" ry="55" fill="#1C1917"/>
              <ellipse cx="0" cy="58" rx="42" ry="48" fill="#030000"/>
              <path d="M-22 -5 Q0 5 22 -5 L28 30 Q0 40 -28 30 Z" fill="#374151"/>
              <ellipse cx="-48" cy="38" rx="14" ry="22" fill="#1C1917"/>
              <ellipse cx="48" cy="38" rx="14" ry="22" fill="#1C1917"/>
              <circle cx="-52" cy="62" r="10" fill="#FDBF6F"/>
              <circle cx="52" cy="62" r="10" fill="#FDBF6F"/>
  </g>

  <!-- Character head -->
  <g transform="translate(125, 100)">
    <ellipse cx="0" cy="0" rx="45" ry="50" fill="url(#skin_banker)"/><ellipse cx="-40" cy="0" rx="7" ry="11" fill="#FDBF6F"/>
             <ellipse cx="40" cy="0" rx="7" ry="11" fill="#FDBF6F"/>
    <ellipse cx="0" cy="-32" rx="42" ry="25" fill="#1C1917"/>
              <path d="M-38 -20 Q-40 -40 0 -50 Q40 -40 38 -20" fill="#030000" opacity="0.5"/>
    <ellipse cx="-14" cy="-8" rx="8" ry="7" fill="white"/>
             <ellipse cx="14" cy="-8" rx="8" ry="7" fill="white"/><circle cx="-12" cy="-8" r="4" fill="#1C1917"/>
             <circle cx="16" cy="-8" r="4" fill="#1C1917"/>
             <circle cx="-11" cy="-9" r="1.5" fill="white"/>
             <circle cx="17" cy="-9" r="1.5" fill="white"/><ellipse cx="0" cy="8" rx="7" ry="9" fill="#f1b363"/><path d="M-8 22 Q0 26 8 20" fill="none" stroke="#78350F" stroke-width="2"/>
    
  </g>

  <!-- Type banner -->
  <rect x="0" y="0" width="250" height="32" fill="#78350F" opacity="0.95"/>
  <text x="125" y="22" text-anchor="middle" font-family="Georgia, serif" font-size="13"
        fill="white" font-weight="bold" letter-spacing="1">VILLAGE</text>

  <!-- Name banner -->
  <rect x="0" y="260" width="250" height="40" fill="#78350F"/>
  <rect x="15" y="262" width="220" height="1.5" fill="#92400E" opacity="0.4"/>
  <text x="125" y="285" text-anchor="middle" font-family="Georgia, serif" font-size="14"
        fill="white" font-weight="bold">BANKER</text>
</svg>