<svg xmlns="http://www.w3.org/2000/svg" viewBox="0 0 250 300" width="250" height="300">
  <defs>
    <linearGradient id="bg_barbarian" x1="0%" y1="0%" x2="100%" y2="100%">
      <stop offset="0%" style="stop-color:#A16207"/>
      <stop offset="100%" style="stop-color:#451A03"/>
    </linearGradient>
    <linearGradient id="skin_barbarian" x1="0%" y1="0%" x2="100%" y2="100%">
      <stop offset="0%" style="stop-color:#e3b483"/>
      <stop offset="100%" style="stop-color:#D4A574"/>
    </linearGradient>
    <filter id="shadow_barbarian">
      <feDropShadow dx="2" dy="3" stdDeviation="2" flood-opacity="0.3"/>
    </filter>
    <clipPath id="card_barbarian">
      <rect x="0" y="0" width="250" height="300" rx="15"/>
    </clipPath>
  </defs>

  <!-- Background -->
  <rect x="0" y="0" width="250" height="300" rx="15" fill="url(#bg_barbarian)"/>

  <!-- Decorative pattern -->
  <g opacity="0.08" clip-path="url(#card_barbarian)">
    <circle cx="35" cy="45" r="30" fill="white"/><circle cx="215" cy="75" r="25" fill="white"/><circle cx="40" cy="220" r="35" fill="white"/>
  </g>

  <!-- Character body -->
  <g transform="translate(125, 165)" filter="url(#shadow_barbarian)">
    <ellipse cx="0" cy="55" rx="52" ry="58" fill="#78350F"/>
              <ellipse cx="0" cy="58" rx="46" ry="50" fill="#5f1c00"/>
              <path d="M-30 0 L-20 -10 L0 0 L20 -10 L30 0 L30 30 L-30 30 Z" fill="#451A03"/>
              <ellipse cx="-52" cy="35" rx="18" ry="26" fill="#78350F"/>
              <ellipse cx="52" cy="35" rx="18" ry="26" fill="#78350F"/>
              <circle cx="-56" cy="65" r="13" fill="#D4A574"/>
              <circle cx="56" cy="65" r="13" fill="#D4A574"/>
  </g>

  <!-- Character head -->
  <g transform="translate(125, 100)">
    <ellipse cx="0" cy="0" rx="45" ry="50" fill="url(#skin_barbarian)"/><ellipse cx="-40" cy="0" rx="7" ry="11" fill="#D4A574"/>
             <ellipse cx="40" cy="0" rx="7" ry="11" fill="#D4A574"/>
    <ellipse cx="0" cy="-25" rx="48" ry="32" fill="#92400E"/>
              <ellipse cx="-38" cy="15" rx="14" ry="35" fill="#92400E"/>
              <ellipse cx="38" cy="15" rx="14" ry="35" fill="#92400E"/>
              <ellipse cx="-25" cy="-40" rx="15" ry="12" fill="#792700"/>
              <ellipse cx="20" cy="-42" rx="12" ry="10" fill="#792700"/>
    <ellipse cx="-14" cy="-8" rx="8" ry="7" fill="white"/>
             <ellipse cx="14" cy="-8" rx="8" ry="7" fill="white"/><circle cx="-14" cy="-8" r="4" fill="#1C1917"/>
             <circle cx="14" cy="-8" r="4" fill="#1C1917"/>
             <circle cx="-13" cy="-9" r="1.5" fill="white"/>
             <circle cx="15" cy="-9" r="1.5" fill="white"/><line x1="-22" y1="-18" x2="-6" y2="-14" stroke="#78350F" stroke-width="3"/>
               <line x1="22" y1="-18" x2="6" y2="-14" stroke="#78350F" stroke-width="3"/><ellipse cx="0" cy="8" rx="7" ry="9" fill="#c89968"/><path d="M-10 22 Q0 28 10 22" fill="none" stroke="#78350F" stroke-width="2"/><path d="M-25 -5 L-18 10" stroke="#D4A574" stroke-width="2" opacity="0.6"/>
    <g transform="translate(0, -35)">
        <ellipse cx="0" cy="0" rx="48" ry="35" fill="#6B7280"/>
        <path d="M-40 -10 Q-55 -45 -35 -55" fill="#78350F" stroke="#451A03" stroke-width="2"/>
        <path d="M40 -10 Q55 -45 35 -55" fill="#78350F" stroke="#451A03" stroke-width="2"/>
      </g>
  </g>

  <!-- Type banner -->
  <rect x="0" y="0" width="250" height="32" fill="#78350F" opacity="0.95"/>
  <text x="125" y="22" text-anchor="middle" font-family="Georgia, serif" font-size="13"
        fill="white" font-weight="bold" letter-spacing="1">VILLAGE</text>

  <!-- Name banner -->
  <rect x="0" y="260" width="250" height="40" fill="#78350F"/>
  <rect x="15" y="262" width="220" height="1.5" fill="#92400E" opacity="0.4"/>
  <text x="125" y="285" text-anchor="middle" font-family="Georgia, serif" font-size="14"
        fill="white" font-weight="bold">BARBARIAN</text>
</svg>